<svg id="a2f28582-e77d-43f4-9dcd-89f1e53b40bc" data-name="Logo" xmlns="http://www.w3.org/2000/svg" xmlns:xlink="http://www.w3.org/1999/xlink" viewBox="0 0 4617.13212 2299.78265"><defs><clipPath id="f6079764-1c4a-4690-bd52-23b9f62e774b"><rect x="-0.00002" y="586.91392" width="4617.13194" height="1210.58091" style="fill:none"/></clipPath><clipPath id="ad032cab-1d35-4bcf-a744-26b98fbb2fe7"><rect id="f067c119-44d9-4aab-b93d-078f6d42550f" data-name="&lt;Clip&gt;" y="586.91393" width="1210.58087" height="1210.58087" rx="605.28983" style="fill:none"/></clipPath><radialGradient id="bef6b129-9b58-4c93-8854-c4194d51988b" cx="605.29044" cy="1192.2044" r="605.29044" gradientUnits="userSpaceOnUse"><stop offset="0.29921" stop-color="#0247c1"/><stop offset="0.47737" stop-color="#0248c5"/><stop offset="0.65724" stop-color="#024ad1"/><stop offset="0.83726" stop-color="#014ee5"/><stop offset="0.99811" stop-color="#0152fe"/></radialGradient></defs><g style="clip-path:url(#f6079764-1c4a-4690-bd52-23b9f62e774b)"><g style="clip-path:url(#ad032cab-1d35-4bcf-a744-26b98fbb2fe7)"><rect y="586.91396" width="1210.58087" height="1210.58087" style="fill:url(#bef6b129-9b58-4c93-8854-c4194d51988b)"/><g id="e8cfbf3b-1002-4f87-80b7-ede0c088a6d7" data-name="Lines"><path d="M874.25394,901.30231c-36.88231-37.24508-68.86714-69.109-70.98333-70.8624-9.25081-7.19508-32.78806-15.25157-42.02165-2.96268-6.34561,8.4453-11.17153,23.80539-26.05947,24.85021-11.8737.83328-18.01792-8.58572-21.22245-17.2319-2.29758-6.04628-.36277-23.33864-2.96267-30.29186-1.572-4.11147-2.72083-5.86489-6.77184-9.795-5.50211-5.38119-9.55312-7.61831-16.56681-8.94849a31.35683,31.35683,0,0,0-19.58994,3.38592c-5.13934,2.72082-6.22767,3.80915-232.96319,230.78652l-1.79391,1.79391C206.34132,1248.76207,205.253,1249.8504,202.53216,1254.98974a31.35694,31.35694,0,0,0-3.38592,19.59c1.33019,7.01368,3.56731,11.06469,8.9485,16.56681,3.93008,4.051,5.6835,5.1998,9.795,6.77183,6.95323,2.5999,24.24559.66509,30.29187,2.96268,8.64618,3.20453,18.06518,9.34874,17.2319,21.22244-1.04482,14.88794-16.40492,19.71387-24.85022,26.05947-12.28888,9.23359-4.23239,32.77084,2.96268,42.02165,1.75342,2.1162,33.61732,34.101,70.86241,70.98333l21.93859,21.93859c36.88231,37.24509,68.86713,69.109,70.98333,70.86241,9.25081,7.19507,32.78806,15.25156,42.02165,2.96267,6.3456-8.44529,11.17153-23.80539,26.05947-24.85021,11.87369-.83328,18.01791,8.58572,21.22244,17.2319,2.29759,6.04628.36278,23.33864,2.96268,30.29187,1.572,4.11147,2.72082,5.86489,6.77183,9.795,5.50212,5.38119,9.55312,7.61831,16.56681,8.94849a31.35687,31.35687,0,0,0,19.58995-3.38591c5.13934-2.72083,6.22767-3.80916,232.96318-230.78652l1.79391-1.79391c226.97737-226.73552,228.0657-227.82385,230.78652-232.96319a31.35685,31.35685,0,0,0,3.38592-19.59c-1.33018-7.01368-3.5673-11.06469-8.94849-16.5668-3.93009-4.051-5.68351-5.19981-9.795-6.77184-6.95322-2.5999-24.24558-.66509-30.29186-2.96268-8.64618-3.20452-18.06519-9.34874-17.2319-21.22244,1.04482-14.88794,16.40491-19.71386,24.85021-26.05947,12.28889-9.23359,4.2324-32.77084-2.96268-42.02165-1.75342-2.11619-33.61732-34.101-70.8624-70.98333Z" style="fill:none;stroke:#fff;stroke-miterlimit:10;stroke-width:2px;opacity:0.5"/><path d="M957.03977,849.41624c-42.67172-48.12487-79.70662-89.32578-82.18092-91.61707-10.84795-9.44049-39.1415-20.9017-51.28486-6.46922-8.34529,9.91844-15.29589,28.41159-33.60723,28.68575-14.604.21866-21.49548-11.73669-24.83747-22.54654-2.40647-7.56317,1.13248-28.61909-1.5831-37.31387-1.64826-5.1436-2.93728-7.36952-7.635-12.45839-6.37761-6.96482-11.18976-9.97947-19.69307-12.08312a38.477,38.477,0,0,0-24.23044,2.82477c-6.48058,2.98631-7.88754,4.2462-301.02109,267.01935l-2.31911,2.0767C115.23392,1229.99509,113.827,1231.255,110.14613,1237.36787a38.47705,38.47705,0,0,0-5.4721,23.77288c1.15584,8.68307,3.623,13.79753,9.84433,20.90234,4.54143,5.22886,6.6121,6.75484,11.54327,8.9587,8.34344,3.65523,29.66082,2.45311,36.9135,5.67666,10.3768,4.51041,21.50183,12.67475,19.6786,27.16614-2.28607,18.17015-21.43138,23.045-32.20735,30.249-15.68028,10.48268-7.39982,39.86495.79054,51.68523,2.00531,2.71125,38.88388,44.05215,82.02459,91.75706l25.39687,28.36158c42.67172,48.12488,79.70662,89.32578,82.18091,91.61707,10.848,9.44049,39.1415,20.9017,51.28487,6.46922,8.34529-9.91844,15.29588-28.41159,33.60723-28.68575,14.604-.21866,21.49548,11.73669,24.83747,22.54654,2.40647,7.56317-1.13249,28.61909,1.5831,37.31387,1.64825,5.1436,2.93728,7.36952,7.635,12.45839,6.37761,6.96482,11.18976,9.97947,19.69307,12.08312a38.477,38.477,0,0,0,24.23044-2.82477c6.48057-2.98631,7.88754-4.2462,301.02108-267.01935l2.31912-2.0767c293.41352-262.46049,294.82048-263.72038,298.50131-269.83327a38.477,38.477,0,0,0,5.47209-23.77288c-1.15583-8.68307-3.623-13.79753-9.84432-20.90234-4.54143-5.22886-6.61211-6.75484-11.54327-8.9587-8.34344-3.65523-29.66082-2.45311-36.9135-5.67666-10.3768-4.51041-21.50183-12.67475-19.6786-27.16614,2.28607-18.17015,21.43138-23.045,32.20735-30.249,15.68028-10.48268,7.39982-39.865-.79054-51.68523-2.00531-2.71125-38.88388-44.05215-82.02459-91.75706Z" style="fill:none;stroke:#fff;stroke-miterlimit:10;stroke-width:2px;opacity:0.527272728085518"/><path d="M1039.82561,797.53017c-48.46113-59.00466-90.54612-109.54258-93.37851-112.37173-12.44511-11.68591-45.49494-26.55184-60.54808-9.97577-10.345,11.39159-19.42024,33.0178-41.155,32.5213-17.33429-.396-24.973-14.88767-28.45249-27.86119-2.51536-9.08,2.62774-33.89953-.20353-44.33587-1.72448-6.17574-3.15374-8.87415-8.49825-15.12181-7.2531-8.54845-12.82639-12.34063-22.81932-15.21774A45.67721,45.67721,0,0,0,755.8995,607.431c-7.82181,3.25178-9.54741,4.68323-369.079,303.25217l-2.84432,2.35948C24.12652,1211.22811,22.40093,1212.65956,17.76011,1219.746a45.67725,45.67725,0,0,0-7.55828,27.95581c.98149,10.35245,3.67879,16.53037,10.74016,25.23787,5.15277,6.40671,7.5407,8.30988,13.29156,11.14557,9.73365,4.71055,35.07606,4.24113,43.53513,8.39064,12.10742,5.81629,24.93849,16.00076,22.12531,33.10983-3.52733,21.45236-26.45786,26.37619-39.56449,34.43862-19.07168,11.73177-10.56725,46.95907-1.3816,61.34882,2.2572,3.30629,44.15045,54.00326,93.18677,112.53077l28.85515,34.78458c48.46113,59.00466,90.54611,109.54258,93.3785,112.37173,12.44511,11.6859,45.49494,26.55184,60.54808,9.97577,10.345-11.39159,19.42024-33.0178,41.155-32.5213,17.33429.396,24.97305,14.88766,28.45249,27.86119,2.51536,9.08005-2.62774,33.89953.20353,44.33586,1.72448,6.17574,3.15374,8.87416,8.49825,15.12182,7.2531,8.54845,12.82639,12.34062,22.81932,15.21774a45.67721,45.67721,0,0,0,28.87094-2.26363c7.82181-3.25179,9.54741-4.68323,369.079-303.25217l2.84432-2.35948c359.84968-298.18547,361.57528-299.61692,366.21609-306.70336a45.67727,45.67727,0,0,0,7.55829-27.95582c-.9815-10.35244-3.6788-16.53037-10.74017-25.23787-5.15277-6.4067-7.5407-8.30987-13.29156-11.14557-9.73365-4.71055-35.07606-4.24113-43.53513-8.39064-12.10742-5.81628-24.93849-16.00075-22.12531-33.10982,3.52733-21.45236,26.45786-26.37619,39.5645-34.43862,19.07167-11.73177,10.56724-46.95907,1.38159-61.34882-2.25719-3.3063-44.15044-54.00327-93.18677-112.53078Z" style="fill:none;stroke:#fff;stroke-miterlimit:10;stroke-width:2px;opacity:0.554545455177625"/><path d="M1122.61144,745.6441c-54.25054-69.88445-101.3856-129.75938-104.5761-133.12639-14.04225-13.93132-51.84838-32.202-69.81129-13.48231-12.34466,12.86472-23.5446,37.624-48.70275,36.35683-20.06459-1.01061-28.45061-18.03864-32.06752-33.17583-2.62424-10.59693,4.123-39.18,1.176-51.35787-1.8007-7.20787-3.3702-10.37879-9.36145-17.78523-8.1286-10.13208-14.463-14.70178-25.94558-18.35236-10.31584-3.09826-22.51578-2.51824-33.51144,1.70248-9.163,3.51727-11.20727,5.12027-437.13688,339.485l-3.36953,2.64226c-426.28583,333.91045-428.33,335.51346-433.93087,343.57345-6.721,9.672-10.19344,21.38169-9.64446,32.13875.80715,12.02182,3.73453,19.26321,11.636,29.5734,5.76412,7.58455,8.4693,9.86491,15.03986,13.33244,11.12387,5.76587,40.4913,6.02914,50.15676,11.10461,13.83805,7.12217,28.37514,19.32676,24.572,39.05352-4.76858,24.73458-31.48433,29.70736-46.92164,38.6282-22.46306,12.98086-13.73467,54.05318-3.55373,71.0124,2.50908,3.90135,49.417,63.95439,104.349,133.3045l32.31342,41.20757c54.25054,69.88445,101.3856,129.75938,104.57609,133.12639,14.04226,13.93132,51.84838,32.202,69.8113,13.48231,12.34466-12.86473,23.54459-37.624,48.70275-36.35684,20.06458,1.01061,28.4506,18.03864,32.06751,33.17583,2.62424,10.59694-4.123,39.18-1.176,51.35787,1.80069,7.20788,3.37019,10.37879,9.36145,17.78523,8.12859,10.13208,14.463,14.70179,25.94558,18.35237,10.31584,3.09825,22.51578,2.51824,33.51143-1.70248,9.163-3.51727,11.20728-5.12028,437.13688-339.485l3.36953-2.64225c426.28583-333.91046,428.33006-335.51346,433.93087-343.57345,6.721-9.672,10.19344-21.38169,9.64447-32.13875-.80716-12.02183-3.73454-19.26321-11.636-29.5734-5.76412-7.58456-8.4693-9.86491-15.03985-13.33244-11.12387-5.76588-40.4913-6.02915-50.15677-11.10462-13.838-7.12217-28.37514-19.32676-24.572-39.05352,4.76857-24.73457,31.48433-29.70735,46.92163-38.6282,22.46307-12.98086,13.73467-54.05317,3.55373-71.01239-2.50908-3.90135-49.417-63.95439-104.34895-133.30451Z" style="fill:none;stroke:#fff;stroke-miterlimit:10;stroke-width:2px;opacity:0.581818182269732"/><path d="M1205.39727,693.758c-60.03995-80.76424-112.22509-149.97618-115.77368-153.88106-15.6394-16.17673-58.20182-37.85211-79.07451-16.98885-14.34435,14.33787-27.66895,42.23019-56.25051,40.19238C931.50369,561.45526,922.3704,541.89089,918.616,524.59c-2.73313-12.11382,5.61826-44.46041,2.55562-58.37987-1.87692-8.24-3.58665-11.88342-10.22466-20.44865-9.00409-11.71571-16.09965-17.06294-29.07184-21.487-11.6584-3.76823-25.54679-3.398-38.15193,1.14133-10.50428,3.78275-12.86714,5.55731-505.19478,375.71783l-3.89473,2.925c-492.722,369.63543-495.08484,371.41-501.64565,380.44354-7.873,10.84025-12.09984,24.075-11.73065,36.32168.63281,13.69121,3.79028,21.996,12.53183,33.90893,6.37546,8.7624,9.3979,11.41995,16.78815,15.51931,12.51408,6.8212,45.90653,7.81716,56.7784,13.8186,15.56866,8.428,31.81179,22.65276,27.01872,44.9972-6.00983,28.01679-36.5108,33.03852-54.27878,42.81778-25.85446,14.23-16.9021,61.14729-5.72587,80.676,2.761,4.4964,54.68357,73.90551,115.51114,154.07823l35.7717,47.63056c60.04,80.76423,112.22509,149.97617,115.77368,153.881,15.6394,16.17673,58.20182,37.85211,79.07451,16.98885,14.34435-14.33786,27.66895-42.23019,56.25051-40.19237,22.79488,1.62523,31.92817,21.18961,35.68254,38.49047,2.73312,12.11382-5.61826,44.46042-2.55562,58.37987,1.87692,8.24,3.58665,11.88342,10.22466,20.44865,9.00409,11.71571,16.09965,17.06294,29.07184,21.487,11.6584,3.76823,25.54679,3.398,38.15193-1.14134,10.50428-3.78275,12.86714-5.55731,505.19478-375.71783l3.89473-2.925c492.722-369.63544,495.08484-371.41,501.64565-380.44355,7.873-10.84025,12.09984-24.075,11.73065-36.32168-.63281-13.69121-3.79028-21.996-12.53183-33.90893-6.37546-8.7624-9.3979-11.41994-16.78815-15.51931-12.51408-6.82119-45.90654-7.81716-56.7784-13.81859-15.56866-8.428-31.81179-22.65276-27.01872-44.99721,6.00983-28.01679,36.5108-33.03852,54.27878-42.81778,25.85445-14.23,16.90209-61.14729,5.72587-80.676-2.761-4.4964-54.68358-73.90551-115.51114-154.07822Z" style="fill:none;stroke:#fff;stroke-miterlimit:10;stroke-width:2px;opacity:0.609090909361839"/><path d="M1288.1831,641.872c-65.82935-91.644-123.06458-170.193-126.97126-174.63571-17.23656-18.42215-64.55527-43.50225-88.33773-20.4954-16.344,15.811-31.79331,46.8364-63.79827,44.02792-25.52518-2.23987-35.40574-24.34058-39.29756-43.80512-2.842-13.6307,7.11352-49.74086,3.93518-65.40187-1.95313-9.27214-3.8031-13.38805-11.08785-23.11207-9.87959-13.29934-17.73629-19.4241-32.1981-24.62161-13.001-4.4382-28.5778-4.27768-42.79243.58019-11.84552,4.04823-14.527,5.99436-573.25267,411.95066l-4.41994,3.20782c-559.15814,405.36041-561.83963,407.30653-569.36044,417.31363-9.025,12.00852-14.00623,26.76827-13.81682,40.50461.45846,15.36059,3.846,24.72889,13.42765,38.24446,6.98681,9.94025,10.3265,12.975,18.53645,17.70618,13.9043,7.87652,51.32177,9.60519,63.4,16.53258,17.29928,9.73392,35.24844,25.97876,29.46543,50.9409-7.25109,31.299-41.53728,36.36968-61.63592,47.00735-29.24585,15.479-20.06952,68.2414-7.898,90.33956,3.01286,5.09145,59.95014,83.85664,126.67333,174.85195l39.23,54.05356c65.82936,91.644,123.06458,170.193,126.97127,174.63571,17.23655,18.42215,64.55526,43.50225,88.33772,20.4954,16.344-15.811,31.79331-46.8364,63.79828-44.02792,25.52517,2.23987,35.40573,24.34058,39.29755,43.80512,2.842,13.6307-7.11351,49.74086-3.93518,65.40187,1.95313,9.27214,3.8031,13.388,11.08786,23.11207,9.87958,13.29934,17.73629,19.4241,32.19809,24.62161,13.001,4.4382,28.5778,4.27768,42.79243-.58019,11.84552-4.04823,14.527-5.99436,573.25268-411.95066l4.41993-3.20782c559.15814-405.36041,561.83963-407.30653,569.36044-417.31363,9.025-12.00852,14.00623-26.76827,13.81683-40.50461-.45847-15.36059-3.846-24.72889-13.42766-38.24446-6.98681-9.94025-10.3265-12.975-18.53645-17.70618-13.90429-7.87652-51.32177-9.60519-63.4-16.53258-17.29928-9.73392-35.24844-25.97876-29.46542-50.9409,7.25108-31.299,41.53727-36.36968,61.63591-47.00735,29.24585-15.479,20.06953-68.2414,7.898-90.33956-3.01286-5.09145-59.95014-83.85664-126.67332-174.85195Z" style="fill:none;stroke:#fff;stroke-miterlimit:10;stroke-width:2px;opacity:0.636363636453947"/><path d="M1370.96894,589.98588c-71.61877-102.5238-133.90407-190.40977-138.16886-195.39037-18.8337-20.66757-70.90871-49.15239-97.60094-24.00195-18.34372,17.28416-35.91766,51.4426-71.346,47.86346-28.25547-2.85449-38.8833-27.49155-42.91259-49.11976-2.95089-15.14758,8.60878-55.0213,5.31476-72.42387-2.02935-10.30428-4.01956-14.89269-11.95106-25.77549-10.75508-14.883-19.37292-21.78525-35.32435-27.75623-14.34355-5.10818-31.60882-5.1574-47.43292.019-13.18676,4.31371-16.18688,6.43139-641.31058,448.18347l-4.94514,3.49061c-625.5943,441.08539-628.59442,443.20307-637.07522,454.18372-10.177,13.17678-15.91263,29.46156-15.903,44.68754.28412,17.03,3.90176,27.46173,14.32349,42.58,7.59815,11.1181,11.2551,14.53,20.28474,19.893,15.29451,8.93185,56.737,11.39321,70.02166,19.24656,19.02991,11.0398,38.6851,29.30477,31.91213,56.88459-8.49233,34.58121-46.56374,39.70085-68.99305,51.19693-32.63725,16.72813-23.23695,75.33552-10.07015,100.00315,3.26475,5.68649,65.2167,93.80775,137.83551,195.62567l42.68825,60.47654C-58.06565,1842.37635,4.21965,1930.26231,8.48443,1935.24292c18.83371,20.66756,70.90871,49.15239,97.60094,24.00194,18.34372-17.28415,35.91767-51.44259,71.346-47.86346,28.25547,2.8545,38.8833,27.49156,42.91258,49.11976,2.9509,15.14759-8.60878,55.02131-5.31476,72.42387,2.02936,10.30429,4.01956,14.89269,11.95107,25.7755,10.75507,14.883,19.37292,21.78525,35.32435,27.75622,14.34354,5.10819,31.60881,5.15741,47.43292-.019,13.18676-4.31371,16.18688-6.43139,641.31058-448.18348l4.94514-3.4906c625.59429-441.08539,628.59442-443.20307,637.07522-454.18372,10.177-13.17678,15.91263-29.46156,15.903-44.68755-.28412-17.03-3.90177-27.46172-14.32349-42.58-7.59816-11.1181-11.2551-14.53-20.28474-19.89305-15.29451-8.93184-56.737-11.3932-70.02167-19.24655-19.0299-11.03981-38.68509-29.30477-31.91213-56.88459,8.49234-34.58121,46.56375-39.70085,68.99306-51.19693,32.63724-16.72813,23.23695-75.33552,10.07014-100.00315-3.26474-5.6865-65.2167-93.80776-137.8355-195.62567Z" style="fill:none;stroke:#fff;stroke-miterlimit:10;stroke-width:2px;opacity:0.663636363546054"/><path d="M1453.75477,538.09981c-77.40818-113.40359-144.74356-210.62656-149.36644-216.145-20.43085-22.913-77.26215-54.80253-106.86416-27.50849-20.3434,18.75729-40.042,56.04879-78.8938,51.699-30.98576-3.46913-42.36085-30.64253-46.5276-54.43441-3.05978-16.66447,10.104-60.30174,6.69433-79.44587-2.10557-11.33641-4.236-16.39732-12.81427-28.43891-11.63057-16.4666-21.00955-24.14641-38.45061-30.89085-15.68611-5.77815-34.63982-6.03713-52.07341-.5421-14.528,4.57919-17.84675,6.86843-709.36848,484.4163L260.62,640.58284c-692.03044,476.81037-695.3492,479.09961-704.79,491.05381-11.329,14.345-17.819,32.15485-17.9892,48.87048.10978,18.69935,3.95751,30.19456,15.21933,46.91552,8.2095,12.29595,12.18369,16.08506,22.033,22.07992,16.68472,9.98717,62.15225,13.18122,76.6433,21.96053,20.76052,12.34569,42.12174,32.63077,34.35883,62.82828-9.73359,37.86342-51.59021,43.032-76.35019,55.38651-36.02864,17.97722-26.40438,82.42963-12.24229,109.66673,3.51664,6.28155,70.48327,103.75888,148.99769,216.39939l46.14653,66.89954c77.40818,113.4036,144.74356,210.62657,149.36644,216.145,20.43085,22.913,77.26215,54.80252,106.86416,27.50849,20.3434-18.7573,40.042-56.0488,78.89379-51.699,30.98577,3.46912,42.36086,30.64252,46.52761,54.4344,3.05978,16.66447-10.104,60.30175-6.69433,79.44587,2.10557,11.33642,4.236,16.39732,12.81427,28.43891,11.63056,16.4666,21.00955,24.14642,38.45061,30.89085,15.68611,5.77816,34.63982,6.03713,52.07341.5421,14.528-4.57919,17.84675-6.86842,709.36848-484.4163l5.47035-3.77338c692.03044-476.81037,695.3492-479.09961,704.79-491.05382,11.329-14.345,17.819-32.15484,17.9892-48.87047-.10978-18.69935-3.95751-30.19457-15.21933-46.91552-8.2095-12.29595-12.18369-16.08506-22.033-22.07992-16.68473-9.98717-62.15225-13.18122-76.6433-21.96054-20.76052-12.34568-42.12174-32.63077-34.35883-62.82828,9.73359-37.86342,51.59021-43.032,76.35019-55.38651,36.02864-17.97722,26.40438-82.42963,12.24229-109.66672-3.51664-6.28155-70.48327-103.75889-148.99769-216.3994Z" style="fill:none;stroke:#fff;stroke-miterlimit:10;stroke-width:2px;opacity:0.690909090638161"/><path d="M1536.5406,486.21374c-83.19758-124.28338-155.583-230.84336-160.564-236.8997-22.028-25.15839-83.61559-60.45266-116.12737-31.015-22.34309,20.23044-44.16638,60.655-86.44156,55.53454-33.71606-4.08376-45.83842-33.7935-50.14262-59.74905-3.16867-18.18135,11.59929-65.58218,8.0739-86.46787-2.18179-12.36855-4.45247-17.90195-13.67747-31.10233-12.50606-18.05022-22.64619-26.50757-41.57687-34.02547-17.02868-6.44813-37.67084-6.91685-56.71391-1.10325-15.86923,4.84467-19.50662,7.30547-777.42638,520.64913l-5.99555,4.05617c-758.4666,512.53535-762.104,514.99615-772.50478,527.9239-12.48095,15.5133-19.72543,34.84814-20.07537,53.05341-.06457,20.36873,4.01324,32.9274,16.11515,51.25105,8.82085,13.4738,13.1123,17.64009,23.78133,24.26679,18.07494,11.04249,67.56749,14.96924,83.26493,24.67452,22.49114,13.65156,45.55839,35.95677,36.80554,68.772-10.97484,41.14563-56.61669,46.36317-83.70734,59.57608-39.42,19.22631-29.5718,89.52374-14.41442,119.33031,3.76852,6.8766,75.74983,113.71,160.15988,237.17312l49.6048,73.32253c83.19759,124.28338,155.58305,230.84336,160.564,236.8997,22.028,25.15839,83.61559,60.45266,116.12737,31.015,22.34309-20.23044,44.16638-60.655,86.44156-55.53454,33.71606,4.08376,45.83842,33.7935,50.14263,59.749,3.16866,18.18135-11.5993,65.58219-8.07391,86.46787,2.1818,12.36855,4.45247,17.902,13.67747,31.10233,12.50607,18.05023,22.64619,26.50757,41.57687,34.02547,17.02868,6.44813,37.67084,6.91685,56.71391,1.10325,15.86923-4.84467,19.50662-7.30547,777.42638-520.64913l5.99555-4.05616c758.4666-512.53536,762.104-514.99615,772.50478-527.92391,12.48095-15.5133,19.72543-34.84813,20.07538-53.05341.06456-20.36873-4.01325-32.9274-16.11516-51.25105-8.82084-13.4738-13.11229-17.64009-23.78133-24.26679-18.07494-11.04249-67.56748-14.96924-83.26493-24.67451-22.49114-13.65156-45.55839-35.95677-36.80554-68.772,10.97484-41.14562,56.61669-46.36317,83.70734-59.57608,39.42-19.22631,29.5718-89.52374,14.41442-119.33031-3.76852-6.8766-75.74983-113.71-160.15988-237.17312Z" style="fill:none;stroke:#fff;stroke-miterlimit:10;stroke-width:2px;opacity:0.718181817730268"/><path d="M1619.32643,434.32767c-88.987-135.16317-166.42253-251.06016-171.76161-257.65436-23.62515-27.40381-89.969-66.1028-125.39059-34.52158-24.34277,21.70359-48.29073,65.2612-93.98932,59.37009-36.44635-4.69839-49.316-36.94448-53.75765-65.06369-3.27755-19.69825,13.09456-70.86264,9.45348-93.48988-2.258-13.40068-4.66893-19.40659-14.54068-33.76575-13.38155-19.63385-24.28282-28.86873-44.70312-37.16009-18.37125-7.11811-40.70185-7.79658-61.35441-1.6644-17.21046,5.11016-21.16648,7.74251-845.48427,556.882l-6.52076,4.339c-824.90276,548.26033-828.85878,550.89268-840.21956,564.794-13.633,16.68157-21.63183,37.54143-22.16156,57.23634-.23891,22.03812,4.069,35.66025,17.011,55.58659,9.43219,14.65164,14.04089,19.19512,25.52962,26.45365,19.46515,12.09782,72.98272,16.75726,89.88656,27.3885,24.22177,14.95744,48.99505,39.28277,39.25225,74.71566-12.2161,44.42784-61.64316,49.69434-91.06448,63.76566-42.81142,20.4754-32.73922,96.61785-16.58656,128.99389,4.02041,7.47165,81.01639,123.66113,171.32206,257.94684l53.06308,79.74553c88.987,135.16317,166.42254,251.06016,171.76162,257.65436,23.62515,27.40381,89.969,66.1028,125.39058,34.52158,24.34278-21.70359,48.29074-65.2612,93.98932-59.37009,36.44636,4.69839,49.316,36.94448,53.75765,65.06369,3.27755,19.69825-13.09455,70.86263-9.45348,93.48988,2.258,13.40068,4.66893,19.40659,14.54068,33.76575,13.38156,19.63385,24.28283,28.86872,44.70313,37.16009,18.37125,7.11811,40.70185,7.79658,61.35441,1.66439,17.21046-5.11015,21.16648-7.7425,845.48427-556.882l6.52076-4.33895c824.90275-548.26033,828.85877-550.89268,840.21956-564.794,13.63294-16.68157,21.63183-37.54143,22.16156-57.23634.23891-22.03812-4.069-35.66025-17.011-55.58659-9.43219-14.65164-14.04089-19.19512-25.52962-26.45365-19.46516-12.09782-72.98273-16.75726-89.88657-27.3885-24.22176-14.95744-48.995-39.28277-39.25224-74.71566,12.21609-44.42784,61.64316-49.69434,91.06448-63.76566,42.81142-20.4754,32.73922-96.61786,16.58655-128.99389-4.0204-7.47165-81.01639-123.66113-171.32206-257.94685Z" style="fill:none;stroke:#fff;stroke-miterlimit:10;stroke-width:2px;opacity:0.745454544822375"/><path d="M1702.11227,382.4416c-94.77641-146.04295-177.262-271.277-182.95921-278.409-25.2223-29.64923-96.32247-71.75294-134.6538-38.02812-26.34246,23.17672-52.41509,69.8674-101.53708,63.20562-39.17665-5.313-52.79355-40.09545-57.37267-70.37833-3.38644-21.21513,14.58981-76.14308,10.833-100.51188-2.33424-14.43282-4.88539-20.91122-15.40388-36.42917-14.257-21.21748-25.91946-31.22988-47.82939-40.29472-19.71382-7.78808-43.73286-8.67629-65.9949-2.22553-18.5517,5.37563-22.82635,8.17954-913.54217,593.11478l-7.046,4.62173c-891.33891,583.98531-895.61357,586.78922-907.93435,601.66408-14.78494,17.84983-23.53822,40.23472-24.24774,61.41927-.41325,23.7075,4.12473,38.39309,17.90682,59.92212,10.04354,15.82949,14.96949,20.75016,27.27792,28.64052,20.85537,13.15314,78.398,18.54528,96.5082,30.10248,25.95238,16.26332,52.43169,42.60878,41.69895,80.65935-13.45735,47.71005-66.66963,53.02551-98.42162,67.95524-46.20282,21.72449-35.90665,103.712-18.75869,138.65748,4.27229,8.0667,86.28295,133.61225,182.48424,278.72056l56.52135,86.16852c94.77641,146.043,177.262,271.277,182.95921,278.409,25.22229,29.64922,96.32247,71.75294,134.6538,38.02812,26.34246-23.17672,52.41509-69.8674,101.53708-63.20562,39.17665,5.313,52.79355,40.09544,57.37267,70.37833,3.38644,21.21513-14.58981,76.14307-10.833,100.51187,2.33424,14.43283,4.88538,20.91123,15.40388,36.42918,14.25705,21.21748,25.91946,31.22988,47.82938,40.29471,19.71383,7.78808,43.73287,8.6763,65.99491,2.22554,18.5517-5.37563,22.82635-8.17955,913.54217-593.11478l7.046-4.62173c891.33891-583.98531,895.61357-586.78923,907.93435-601.66408,14.78494-17.84983,23.53822-40.23472,24.24774-61.41928.41325-23.70749-4.12473-38.39308-17.90682-59.92211-10.04354-15.8295-14.9695-20.75017-27.27792-28.64052-20.85537-13.15315-78.398-18.54528-96.5082-30.10248-25.95238-16.26332-52.43169-42.60878-41.69895-80.65936,13.45735-47.71005,66.66963-53.0255,98.42162-67.95523,46.20282-21.72449,35.90665-103.712,18.75869-138.65748-4.27229-8.0667-86.283-133.61225-182.48424-278.72056Z" style="fill:none;stroke:#fff;stroke-miterlimit:10;stroke-width:2px;opacity:0.772727271914482"/><path d="M1784.8981,330.55552C1684.33229,173.63279,1596.79659,39.06177,1590.74131,31.39184c-26.81945-31.89464-102.67591-77.40307-143.917-41.53466-28.34214,24.64986-56.53944,74.4736-109.08484,67.04116-41.90694-5.92765-56.27111-43.24642-60.98769-75.693-3.49532-22.732,16.08507-81.42351,12.21262-107.53387-2.41046-15.465-5.10184-22.41586-16.26709-39.09259-15.13254-22.80112-27.55609-33.591-50.95564-43.42934-21.05639-8.45806-46.76387-9.556-70.6354-2.78668-19.89293,5.64111-24.48622,8.61658-981.60007,629.3476L161.935,422.615c-957.77506,619.7103-962.36835,622.68577-975.64913,638.53418-15.93693,19.01809-25.44462,42.928-26.33392,65.60221-.5876,25.37687,4.18048,41.12592,18.80266,64.25764,10.65488,17.00735,15.89809,22.3052,29.02621,30.82739,22.24558,14.20847,83.8132,20.3333,103.12983,32.81646,27.683,17.5692,55.86835,45.93478,44.14565,86.60305-14.6986,50.99226-71.6961,56.35666-105.77876,72.14481-49.59421,22.97358-39.07407,110.80608-20.93083,148.32106,4.52418,8.66175,91.54952,143.56337,193.64643,299.49429l59.97963,92.59151c100.56581,156.92274,188.10152,291.49375,194.15679,299.16368,26.81945,31.89464,102.67592,77.40308,143.917,41.53467,28.34214-24.64987,56.53944-74.4736,109.08484-67.04117,41.907,5.92765,56.27111,43.24642,60.9877,75.693,3.49532,22.732-16.08508,81.42352-12.21263,107.53387,2.41046,15.465,5.10184,22.41586,16.26709,39.0926,15.13254,22.80111,27.55609,33.591,50.95564,43.42933,21.05639,8.45806,46.76387,9.556,70.6354,2.78669,19.89294-5.64112,24.48622-8.61659,981.60007-629.34761l7.57117-4.90451c957.77507-619.71029,962.36835-622.68577,975.64913-638.53418,15.93693-19.01809,25.44462-42.928,26.33392-65.6022.5876-25.37688-4.18047-41.12592-18.80265-64.25765-10.65488-17.00734-15.89809-22.3052-29.02621-30.82739-22.24559-14.20847-83.8132-20.3333-103.12983-32.81646-27.683-17.5692-55.86835-45.93478-44.14566-86.603,14.6986-50.99226,71.6961-56.35667,105.77876-72.14482,49.59421-22.97358,39.07408-110.80608,20.93083-148.32105C2034,713.97958,1946.97464,579.078,1844.87774,423.147Z" style="fill:none;stroke:#fff;stroke-miterlimit:10;stroke-width:2px;opacity:0.8"/></g><path id="a6573c01-bcc5-457b-aac4-1879d3d65cce" data-name="Razor" d="M469.3932,1057.8095c-190.03473,189.83256-190.94593,190.74377-193.22391,195.04662a26.25365,26.25365,0,0,0-2.83479,16.40149c1.11367,5.87209,2.98674,9.26379,7.4921,13.87037,3.29043,3.39175,4.75844,4.35352,8.2007,5.66968,5.82158,2.17676,20.29947.55685,25.36164,2.48043,7.239,2.683,15.125,7.82715,14.42729,17.76831-.87472,12.46482-13.73485,16.50527-20.8056,21.81811-10.28872,7.73079-3.54358,27.43718,2.48046,35.18229,1.468,1.77179,28.14588,28.55077,59.329,59.43013l2.19809,2.19809c30.87939,31.18305,57.6585,57.86079,59.43024,59.32885,7.74517,6.024,27.45162,12.76926,35.18234,2.48048,5.31273-7.07076,9.35317-19.9309,21.818-20.80573,9.94115-.69758,15.08542,7.1884,17.76832,14.42727,1.92369,5.06227.3038,19.54017,2.48056,25.36164,1.31612,3.44221,2.27788,4.91033,5.66969,8.20079,4.60659,4.50536,7.99813,6.37828,13.87033,7.492a26.2538,26.2538,0,0,0,16.40158-2.8348c4.30285-2.27809,5.21406-3.18929,195.04633-193.22421l1.50194-1.50194c190.03473-189.83266,190.94593-190.74387,193.224-195.04667a26.25279,26.25279,0,0,0,2.83463-16.40164c-1.11361-5.87214-2.98654-9.26369-7.492-13.87037-3.29042-3.39165-4.75843-4.35352-8.20064-5.66963-5.82158-2.17666-20.29943-.5568-25.3617-2.48049-7.23887-2.68289-15.12491-7.82709-14.42714-17.76825.87462-12.46482,13.73465-16.50538,20.80546-21.81817,10.28877-7.73073,3.54358-27.43707-2.48046-35.18228-1.468-1.77169-28.14589-28.55077-59.329-59.43008l-2.198-2.198c-30.87945-31.1831-57.6585-57.86089-59.43025-59.32895-7.74517-6.024-27.45151-12.76926-35.18228-2.48043-5.31279,7.07081-9.35328,19.9309-21.818,20.80568-9.94111.69773-15.08532-7.1883-17.76828-14.42722-1.92364-5.06222-.30384-19.54012-2.48055-25.36175-1.31622-3.44221-2.278-4.91022-5.66969-8.20068-4.60664-4.50541-7.99824-6.37838-13.87043-7.492a26.254,26.254,0,0,0-16.40149,2.8349M612.16722,1165.819l45.80826,0,22.859,22.804L657.9755,1211.6436l-45.63142.00007,22.71906,22.719-26.29967,26.29969-22.81963-22.8196-.00938.01153L560.21394,1263.575l-3.3105,47.74756-.00577,1.39623-.091.0004-.007.10037-.0999-.09991-26.109.11737-.11657,26.30524-.01057.00005.00664.00664-49.24451,3.41427-26.29587-26.29584-22.9134-22.91338,26.32936-26.3294,45.93758,45.93754.10892-26.32515,26.11662-.10807-45.83375-45.83371,26.32942-26.32944,22.9134,22.91338,25.72511-25.72523.00867-.00306-22.91621-22.91609,26.29967-26.2997,22.90568-22.9057,45.739.09417.01219-.01842,25.63332-25.63335,0-.00005,3.42984-49.16175,45.73181-45.73195,26.29592,26.29579-45.73181,45.732,19.43609,19.43607,17.71606-17.71608-.00006-28.01592,28.01581,0,26.29582,26.29579-45.73181,45.732-49.1618,3.42994,0,.00005-25.64113,25.64115-22.9057-22.91925-.02158.0273-22.88809,22.88812-.04342.04341-22.77974,22.77813,22.8157,22.81567-.01961-45.59428Z" style="fill:#fff"/></g><path id="b09cde77-22ff-4972-8a2f-ee936c834879" data-name="Razor" d="M3270.13711,1084.35825l255.86027,254.74154.30681,255.04877-256.25824.903-254.87282-254.87192.00016,253.79258-293.79153.00019-.00016-254.916-.11685.012-287.32243.00075-285.18263,248.20141-7.83073,7.76634-.51069-.50612-.5996.52151v-1.116l-146.48606-145.17494L1845.75469,1595.0371l-.05927-.05871v.0741L1551.572,1339.06973l-.00019-293.74878-.00017-255.96357,294.12325-.00019.00034,513.16453,147.64631-146.42963,146.47694,145.26956-.00034-512.00465,294.12382-.0002.00017,255.96357,287.37373-.00076.06555.03135-.00074-255.99434,293.79153-.0002,255.8775-.00016,254.94749,255.99931.171-.03477,286.3478-.00019V1045.32l293.748-255.43369,510.867-.00091.00076,293.74879-510.867.0009.00015,217.11879,197.90472-.00013,156.48132-156.4821,156.481,156.48133.00019,293.74821-510.867.0009-293.749-255.43331v.00057l-286.435.00019.07564-255.95331-.273.03192-510.62761-.00879.00016,254.87209,254.55536-253.65608Z" style="fill:#fff"/></g></svg>