<?xml version="1.0" encoding="utf-8"?>
<!-- Generator: Adobe Illustrator 25.2.0, SVG Export Plug-In . SVG Version: 6.00 Build 0)  -->
<svg version="1.1" id="a2f28582-e77d-43f4-9dcd-89f1e53b40bc"
	 xmlns="http://www.w3.org/2000/svg" xmlns:xlink="http://www.w3.org/1999/xlink" x="0px" y="0px" viewBox="0 0 4617.1 2299.8"
	 style="enable-background:new 0 0 4617.1 2299.8;" xml:space="preserve">
<style type="text/css">
	.st0{clip-path:url(#SVGID_2_);}
	.st1{clip-path:url(#SVGID_4_);}
	.st2{fill:url(#SVGID_5_);}
	.st3{opacity:0.5;fill:none;stroke:#FFFFFF;stroke-width:2;stroke-miterlimit:10;enable-background:new    ;}
	.st4{opacity:0.5273;fill:none;stroke:#FFFFFF;stroke-width:2;stroke-miterlimit:10;enable-background:new    ;}
	.st5{opacity:0.5545;fill:none;stroke:#FFFFFF;stroke-width:2;stroke-miterlimit:10;enable-background:new    ;}
	.st6{opacity:0.5818;fill:none;stroke:#FFFFFF;stroke-width:2;stroke-miterlimit:10;enable-background:new    ;}
	.st7{opacity:0.6091;fill:none;stroke:#FFFFFF;stroke-width:2;stroke-miterlimit:10;enable-background:new    ;}
	.st8{opacity:0.6364;fill:none;stroke:#FFFFFF;stroke-width:2;stroke-miterlimit:10;enable-background:new    ;}
	.st9{opacity:0.6636;fill:none;stroke:#FFFFFF;stroke-width:2;stroke-miterlimit:10;enable-background:new    ;}
	.st10{opacity:0.6909;fill:none;stroke:#FFFFFF;stroke-width:2;stroke-miterlimit:10;enable-background:new    ;}
	.st11{opacity:0.7182;fill:none;stroke:#FFFFFF;stroke-width:2;stroke-miterlimit:10;enable-background:new    ;}
	.st12{opacity:0.7455;fill:none;stroke:#FFFFFF;stroke-width:2;stroke-miterlimit:10;enable-background:new    ;}
	.st13{opacity:0.7727;fill:none;stroke:#FFFFFF;stroke-width:2;stroke-miterlimit:10;enable-background:new    ;}
	.st14{opacity:0.8;fill:none;stroke:#FFFFFF;stroke-width:2;stroke-miterlimit:10;enable-background:new    ;}
	.st15{fill:#FFFFFF;}
</style>
<g>
	<defs>
		<rect id="SVGID_1_" x="0" y="586.9" width="4617.1" height="1210.6"/>
	</defs>
	<clipPath id="SVGID_2_">
		<use xlink:href="#SVGID_1_"  style="overflow:visible;"/>
	</clipPath>
	<g class="st0">
		<g>
			<defs>
				<path id="SVGID_3_" d="M605.3,586.9L605.3,586.9c334.3,0,605.3,271,605.3,605.3v0c0,334.3-271,605.3-605.3,605.3h0
					C271,1797.5,0,1526.5,0,1192.2v0C0,857.9,271,586.9,605.3,586.9z"/>
			</defs>
			<clipPath id="SVGID_4_">
				<use xlink:href="#SVGID_3_"  style="overflow:visible;"/>
			</clipPath>
			<g class="st1">
				
					<radialGradient id="SVGID_5_" cx="605.2904" cy="1107.7957" r="605.2904" gradientTransform="matrix(1 0 0 -1 0 2300)" gradientUnits="userSpaceOnUse">
					<stop  offset="0.2992" style="stop-color:#0247C1"/>
					<stop  offset="0.4774" style="stop-color:#0248C5"/>
					<stop  offset="0.6572" style="stop-color:#024AD1"/>
					<stop  offset="0.8373" style="stop-color:#014EE5"/>
					<stop  offset="0.9981" style="stop-color:#0152FE"/>
				</radialGradient>
				<rect y="586.9" class="st2" width="1210.6" height="1210.6"/>
				<g id="e8cfbf3b-1002-4f87-80b7-ede0c088a6d7">
					<path class="st3" d="M874.3,901.3c-36.9-37.2-68.9-69.1-71-70.9c-9.3-7.2-32.8-15.3-42-3c-6.3,8.4-11.2,23.8-26.1,24.9
						c-11.9,0.8-18-8.6-21.2-17.2c-2.3-6-0.4-23.3-3-30.3c-1.6-4.1-2.7-5.9-6.8-9.8c-5.5-5.4-9.6-7.6-16.6-8.9
						c-6.7-1-13.6,0.2-19.6,3.4c-5.1,2.7-6.2,3.8-233,230.8l-1.8,1.8c-227,226.7-228.1,227.8-230.8,233c-3.2,6-4.4,12.9-3.4,19.6
						c1.3,7,3.6,11.1,8.9,16.6c3.9,4.1,5.7,5.2,9.8,6.8c7,2.6,24.2,0.7,30.3,3c8.6,3.2,18.1,9.3,17.2,21.2
						c-1,14.9-16.4,19.7-24.9,26.1c-12.3,9.2-4.2,32.8,3,42c1.8,2.1,33.6,34.1,70.9,71l21.9,21.9c36.9,37.2,68.9,69.1,71,70.9
						c9.3,7.2,32.8,15.3,42,3c6.3-8.4,11.2-23.8,26.1-24.9c11.9-0.8,18,8.6,21.2,17.2c2.3,6,0.4,23.3,3,30.3
						c1.6,4.1,2.7,5.9,6.8,9.8c5.5,5.4,9.6,7.6,16.6,8.9c6.7,1,13.6-0.2,19.6-3.4c5.1-2.7,6.2-3.8,233-230.8l1.8-1.8
						c227-226.7,228.1-227.8,230.8-233c3.2-6,4.4-12.9,3.4-19.6c-1.3-7-3.6-11.1-8.9-16.6c-3.9-4.1-5.7-5.2-9.8-6.8
						c-7-2.6-24.2-0.7-30.3-3c-8.6-3.2-18.1-9.3-17.2-21.2c1-14.9,16.4-19.7,24.9-26.1c12.3-9.2,4.2-32.8-3-42
						c-1.8-2.1-33.6-34.1-70.9-71L874.3,901.3z"/>
					<path class="st4" d="M957,849.4c-42.7-48.1-79.7-89.3-82.2-91.6c-10.8-9.4-39.1-20.9-51.3-6.5c-8.3,9.9-15.3,28.4-33.6,28.7
						c-14.6,0.2-21.5-11.7-24.8-22.5c-2.4-7.6,1.1-28.6-1.6-37.3c-1.6-5.1-2.9-7.4-7.6-12.5c-6.4-7-11.2-10-19.7-12.1
						c-8.2-1.7-16.7-0.7-24.2,2.8c-6.5,3-7.9,4.2-301,267l-2.3,2.1c-293.4,262.5-294.8,263.7-298.5,269.8
						c-4.4,7.1-6.3,15.5-5.5,23.8c1.2,8.7,3.6,13.8,9.8,20.9c4.5,5.2,6.6,6.8,11.5,9c8.3,3.7,29.7,2.5,36.9,5.7
						c10.4,4.5,21.5,12.7,19.7,27.2c-2.3,18.2-21.4,23-32.2,30.2c-15.7,10.5-7.4,39.9,0.8,51.7c2,2.7,38.9,44.1,82,91.8l25.4,28.4
						c42.7,48.1,79.7,89.3,82.2,91.6c10.8,9.4,39.1,20.9,51.3,6.5c8.3-9.9,15.3-28.4,33.6-28.7c14.6-0.2,21.5,11.7,24.8,22.5
						c2.4,7.6-1.1,28.6,1.6,37.3c1.6,5.1,2.9,7.4,7.6,12.5c6.4,7,11.2,10,19.7,12.1c8.2,1.7,16.7,0.7,24.2-2.8
						c6.5-3,7.9-4.2,301-267l2.3-2.1c293.4-262.5,294.8-263.7,298.5-269.8c4.4-7.1,6.3-15.5,5.5-23.8c-1.2-8.7-3.6-13.8-9.8-20.9
						c-4.5-5.2-6.6-6.8-11.5-9c-8.3-3.7-29.7-2.5-36.9-5.7c-10.4-4.5-21.5-12.7-19.7-27.2c2.3-18.2,21.4-23,32.2-30.2
						c15.7-10.5,7.4-39.9-0.8-51.7c-2-2.7-38.9-44.1-82-91.8L957,849.4z"/>
					<path class="st5" d="M1039.8,797.5c-48.5-59-90.5-109.5-93.4-112.4c-12.4-11.7-45.5-26.6-60.5-10c-10.3,11.4-19.4,33-41.2,32.5
						c-17.3-0.4-25-14.9-28.5-27.9c-2.5-9.1,2.6-33.9-0.2-44.3c-1.7-6.2-3.2-8.9-8.5-15.1c-7.3-8.5-12.8-12.3-22.8-15.2
						c-9.6-2.4-19.7-1.6-28.9,2.3c-7.8,3.3-9.5,4.7-369.1,303.3L384,913C24.1,1211.2,22.4,1212.7,17.8,1219.7
						c-5.5,8.3-8.1,18.1-7.6,28c1,10.4,3.7,16.5,10.7,25.2c5.2,6.4,7.5,8.3,13.3,11.1c9.7,4.7,35.1,4.2,43.5,8.4
						c12.1,5.8,24.9,16,22.1,33.1c-3.5,21.5-26.5,26.4-39.6,34.4c-19.1,11.7-10.6,47-1.4,61.3c2.3,3.3,44.2,54,93.2,112.5l28.9,34.8
						c48.5,59,90.5,109.5,93.4,112.4c12.4,11.7,45.5,26.6,60.5,10c10.3-11.4,19.4-33,41.2-32.5c17.3,0.4,25,14.9,28.5,27.9
						c2.5,9.1-2.6,33.9,0.2,44.3c1.7,6.2,3.2,8.9,8.5,15.1c7.3,8.5,12.8,12.3,22.8,15.2c9.6,2.4,19.7,1.6,28.9-2.3
						c7.8-3.3,9.5-4.7,369.1-303.3l2.8-2.4c359.8-298.2,361.6-299.6,366.2-306.7c5.5-8.3,8.1-18.1,7.6-28
						c-1-10.4-3.7-16.5-10.7-25.2c-5.2-6.4-7.5-8.3-13.3-11.1c-9.7-4.7-35.1-4.2-43.5-8.4c-12.1-5.8-24.9-16-22.1-33.1
						c3.5-21.5,26.5-26.4,39.6-34.4c19.1-11.7,10.6-47,1.4-61.3c-2.3-3.3-44.2-54-93.2-112.5L1039.8,797.5z"/>
					<path class="st6" d="M1122.6,745.6c-54.3-69.9-101.4-129.8-104.6-133.1c-14-13.9-51.8-32.2-69.8-13.5
						c-12.3,12.9-23.5,37.6-48.7,36.4c-20.1-1-28.5-18-32.1-33.2c-2.6-10.6,4.1-39.2,1.2-51.4c-1.8-7.2-3.4-10.4-9.4-17.8
						c-8.1-10.1-14.5-14.7-25.9-18.4c-10.3-3.1-22.5-2.5-33.5,1.7c-9.2,3.5-11.2,5.1-437.1,339.5l-3.4,2.6
						C-67,1192.5-69,1194.1-74.6,1202.1c-6.7,9.7-10.2,21.4-9.6,32.1c0.8,12,3.7,19.3,11.6,29.6c5.8,7.6,8.5,9.9,15,13.3
						c11.1,5.8,40.5,6,50.2,11.1c13.8,7.1,28.4,19.3,24.6,39.1c-4.8,24.7-31.5,29.7-46.9,38.6c-22.5,13-13.7,54.1-3.6,71
						c2.5,3.9,49.4,64,104.3,133.3l32.3,41.2c54.3,69.9,101.4,129.8,104.6,133.1c14,13.9,51.8,32.2,69.8,13.5
						c12.3-12.9,23.5-37.6,48.7-36.4c20.1,1,28.5,18,32.1,33.2c2.6,10.6-4.1,39.2-1.2,51.4c1.8,7.2,3.4,10.4,9.4,17.8
						c8.1,10.1,14.5,14.7,25.9,18.4c10.3,3.1,22.5,2.5,33.5-1.7c9.2-3.5,11.2-5.1,437.1-339.5l3.4-2.6
						c426.3-333.9,428.3-335.5,433.9-343.6c6.7-9.7,10.2-21.4,9.6-32.1c-0.8-12-3.7-19.3-11.6-29.6c-5.8-7.6-8.5-9.9-15-13.3
						c-11.1-5.8-40.5-6-50.2-11.1c-13.8-7.1-28.4-19.3-24.6-39.1c4.8-24.7,31.5-29.7,46.9-38.6c22.5-13,13.7-54.1,3.6-71
						c-2.5-3.9-49.4-64-104.3-133.3L1122.6,745.6z"/>
					<path class="st7" d="M1205.4,693.8c-60-80.8-112.2-150-115.8-153.9c-15.6-16.2-58.2-37.9-79.1-17
						c-14.3,14.3-27.7,42.2-56.3,40.2c-22.8-1.6-31.9-21.2-35.7-38.5c-2.7-12.1,5.6-44.5,2.6-58.4c-1.9-8.2-3.6-11.9-10.2-20.4
						c-9-11.7-16.1-17.1-29.1-21.5c-11.7-3.8-25.5-3.4-38.2,1.1c-10.5,3.8-12.9,5.6-505.2,375.7l-3.9,2.9
						c-492.7,369.6-495.1,371.4-501.6,380.4c-7.9,10.8-12.1,24.1-11.7,36.3c0.6,13.7,3.8,22,12.5,33.9c6.4,8.8,9.4,11.4,16.8,15.5
						c12.5,6.8,45.9,7.8,56.8,13.8c15.6,8.4,31.8,22.7,27,45c-6,28-36.5,33-54.3,42.8c-25.9,14.2-16.9,61.1-5.7,80.7
						c2.8,4.5,54.7,73.9,115.5,154.1l35.8,47.6c60,80.8,112.2,150,115.8,153.9c15.6,16.2,58.2,37.9,79.1,17
						c14.3-14.3,27.7-42.2,56.3-40.2c22.8,1.6,31.9,21.2,35.7,38.5c2.7,12.1-5.6,44.5-2.6,58.4c1.9,8.2,3.6,11.9,10.2,20.4
						c9,11.7,16.1,17.1,29.1,21.5c11.7,3.8,25.5,3.4,38.2-1.1c10.5-3.8,12.9-5.6,505.2-375.7l3.9-2.9
						c492.7-369.6,495.1-371.4,501.6-380.4c7.9-10.8,12.1-24.1,11.7-36.3c-0.6-13.7-3.8-22-12.5-33.9c-6.4-8.8-9.4-11.4-16.8-15.5
						c-12.5-6.8-45.9-7.8-56.8-13.8c-15.6-8.4-31.8-22.7-27-45c6-28,36.5-33,54.3-42.8c25.9-14.2,16.9-61.1,5.7-80.7
						c-2.8-4.5-54.7-73.9-115.5-154.1L1205.4,693.8z"/>
					<path class="st8" d="M1288.2,641.9c-65.8-91.6-123.1-170.2-127-174.6c-17.2-18.4-64.6-43.5-88.3-20.5
						c-16.3,15.8-31.8,46.8-63.8,44c-25.5-2.2-35.4-24.3-39.3-43.8c-2.8-13.6,7.1-49.7,3.9-65.4c-2-9.3-3.8-13.4-11.1-23.1
						c-9.9-13.3-17.7-19.4-32.2-24.6c-13-4.4-28.6-4.3-42.8,0.6c-11.8,4-14.5,6-573.3,412l-4.4,3.2
						c-559.2,405.4-561.8,407.3-569.4,417.3c-9,12-14,26.8-13.8,40.5c0.5,15.4,3.8,24.7,13.4,38.2c7,9.9,10.3,13,18.5,17.7
						c13.9,7.9,51.3,9.6,63.4,16.5c17.3,9.7,35.2,26,29.5,50.9c-7.3,31.3-41.5,36.4-61.6,47c-29.2,15.5-20.1,68.2-7.9,90.3
						c3,5.1,60,83.9,126.7,174.9l39.2,54.1c65.8,91.6,123.1,170.2,127,174.6c17.2,18.4,64.6,43.5,88.3,20.5
						c16.3-15.8,31.8-46.8,63.8-44c25.5,2.2,35.4,24.3,39.3,43.8c2.8,13.6-7.1,49.7-3.9,65.4c2,9.3,3.8,13.4,11.1,23.1
						c9.9,13.3,17.7,19.4,32.2,24.6c13,4.4,28.6,4.3,42.8-0.6c11.8-4,14.5-6,573.3-412l4.4-3.2c559.2-405.4,561.8-407.3,569.4-417.3
						c9-12,14-26.8,13.8-40.5c-0.5-15.4-3.8-24.7-13.4-38.2c-7-9.9-10.3-13-18.5-17.7c-13.9-7.9-51.3-9.6-63.4-16.5
						c-17.3-9.7-35.2-26-29.5-50.9c7.3-31.3,41.5-36.4,61.6-47c29.2-15.5,20.1-68.2,7.9-90.3c-3-5.1-60-83.9-126.7-174.9
						L1288.2,641.9z"/>
					<path class="st9" d="M1371,590c-71.6-102.5-133.9-190.4-138.2-195.4c-18.8-20.7-70.9-49.2-97.6-24
						c-18.3,17.3-35.9,51.4-71.3,47.9c-28.3-2.9-38.9-27.5-42.9-49.1c-3-15.1,8.6-55,5.3-72.4c-2-10.3-4-14.9-12-25.8
						c-10.8-14.9-19.4-21.8-35.3-27.8c-14.3-5.1-31.6-5.2-47.4,0c-13.2,4.3-16.2,6.4-641.3,448.2l-4.9,3.5
						c-625.6,441.1-628.6,443.2-637.1,454.2c-10.2,13.2-15.9,29.5-15.9,44.7c0.3,17,3.9,27.5,14.3,42.6
						c7.6,11.1,11.3,14.5,20.3,19.9c15.3,8.9,56.7,11.4,70,19.2c19,11,38.7,29.3,31.9,56.9c-8.5,34.6-46.6,39.7-69,51.2
						c-32.6,16.7-23.2,75.3-10.1,100c3.3,5.7,65.2,93.8,137.8,195.6l42.7,60.5c71.6,102.5,133.9,190.4,138.2,195.4
						c18.8,20.7,70.9,49.2,97.6,24c18.3-17.3,35.9-51.4,71.3-47.9c28.3,2.9,38.9,27.5,42.9,49.1c3,15.1-8.6,55-5.3,72.4
						c2,10.3,4,14.9,12,25.8c10.8,14.9,19.4,21.8,35.3,27.8c14.3,5.1,31.6,5.2,47.4,0c13.2-4.3,16.2-6.4,641.3-448.2l4.9-3.5
						c625.6-441.1,628.6-443.2,637.1-454.2c10.2-13.2,15.9-29.5,15.9-44.7c-0.3-17-3.9-27.5-14.3-42.6
						c-7.6-11.1-11.3-14.5-20.3-19.9c-15.3-8.9-56.7-11.4-70-19.2c-19-11-38.7-29.3-31.9-56.9c8.5-34.6,46.6-39.7,69-51.2
						c32.6-16.7,23.2-75.3,10.1-100c-3.3-5.7-65.2-93.8-137.8-195.6L1371,590z"/>
					<path class="st10" d="M1453.8,538.1C1376.3,424.7,1309,327.5,1304.4,322c-20.4-22.9-77.3-54.8-106.9-27.5
						c-20.3,18.8-40,56-78.9,51.7c-31-3.5-42.4-30.6-46.5-54.4c-3.1-16.7,10.1-60.3,6.7-79.4c-2.1-11.3-4.2-16.4-12.8-28.4
						c-11.6-16.5-21-24.1-38.5-30.9c-15.7-5.8-34.6-6-52.1-0.5c-14.5,4.6-17.8,6.9-709.4,484.4l-5.5,3.8
						c-692,476.8-695.3,479.1-704.8,491.1c-11.3,14.3-17.8,32.2-18,48.9c0.1,18.7,4,30.2,15.2,46.9c8.2,12.3,12.2,16.1,22,22.1
						c16.7,10,62.2,13.2,76.6,22c20.8,12.3,42.1,32.6,34.4,62.8c-9.7,37.9-51.6,43-76.4,55.4c-36,18-26.4,82.4-12.2,109.7
						c3.5,6.3,70.5,103.8,149,216.4l46.1,66.9C-129.9,1896-62.6,1993.3-58,1998.8c20.4,22.9,77.3,54.8,106.9,27.5
						c20.3-18.8,40-56,78.9-51.7c31,3.5,42.4,30.6,46.5,54.4c3.1,16.7-10.1,60.3-6.7,79.4c2.1,11.3,4.2,16.4,12.8,28.4
						c11.6,16.5,21,24.1,38.5,30.9c15.7,5.8,34.6,6,52.1,0.5c14.5-4.6,17.8-6.9,709.4-484.4l5.5-3.8
						c692-476.8,695.3-479.1,704.8-491.1c11.3-14.3,17.8-32.2,18-48.9c-0.1-18.7-4-30.2-15.2-46.9c-8.2-12.3-12.2-16.1-22-22.1
						c-16.7-10-62.2-13.2-76.6-22c-20.8-12.3-42.1-32.6-34.4-62.8c9.7-37.9,51.6-43,76.4-55.4c36-18,26.4-82.4,12.2-109.7
						c-3.5-6.3-70.5-103.8-149-216.4L1453.8,538.1z"/>
					<path class="st11" d="M1536.5,486.2C1453.3,361.9,1381,255.4,1376,249.3c-22-25.2-83.6-60.5-116.1-31
						c-22.3,20.2-44.2,60.7-86.4,55.5c-33.7-4.1-45.8-33.8-50.1-59.7c-3.2-18.2,11.6-65.6,8.1-86.5c-2.2-12.4-4.5-17.9-13.7-31.1
						c-12.5-18.1-22.6-26.5-41.6-34c-17-6.4-37.7-6.9-56.7-1.1c-15.9,4.8-19.5,7.3-777.4,520.6l-6,4.1
						c-758.5,512.5-762.1,515-772.5,527.9c-12.5,15.5-19.7,34.8-20.1,53.1c-0.1,20.4,4,32.9,16.1,51.3c8.8,13.5,13.1,17.6,23.8,24.3
						c18.1,11,67.6,15,83.3,24.7c22.5,13.7,45.6,36,36.8,68.8c-11,41.1-56.6,46.4-83.7,59.6c-39.4,19.2-29.6,89.5-14.4,119.3
						c3.8,6.9,75.7,113.7,160.2,237.2l49.6,73.3c83.2,124.3,155.6,230.8,160.6,236.9c22,25.2,83.6,60.5,116.1,31
						c22.3-20.2,44.2-60.7,86.4-55.5c33.7,4.1,45.8,33.8,50.1,59.7c3.2,18.2-11.6,65.6-8.1,86.5c2.2,12.4,4.5,17.9,13.7,31.1
						c12.5,18.1,22.6,26.5,41.6,34c17,6.4,37.7,6.9,56.7,1.1c15.9-4.8,19.5-7.3,777.4-520.6l6-4.1
						c758.5-512.5,762.1-515,772.5-527.9c12.5-15.5,19.7-34.8,20.1-53.1c0.1-20.4-4-32.9-16.1-51.3c-8.8-13.5-13.1-17.6-23.8-24.3
						c-18.1-11-67.6-15-83.3-24.7c-22.5-13.7-45.6-36-36.8-68.8c11-41.1,56.6-46.4,83.7-59.6c39.4-19.2,29.6-89.5,14.4-119.3
						c-3.8-6.9-75.7-113.7-160.2-237.2L1536.5,486.2z"/>
					<path class="st12" d="M1619.3,434.3c-89-135.2-166.4-251.1-171.8-257.7c-23.6-27.4-90-66.1-125.4-34.5
						c-24.3,21.7-48.3,65.3-94,59.4c-36.4-4.7-49.3-36.9-53.8-65.1c-3.3-19.7,13.1-70.9,9.5-93.5c-2.3-13.4-4.7-19.4-14.5-33.8
						c-13.4-19.6-24.3-28.9-44.7-37.2c-18.4-7.1-40.7-7.8-61.4-1.7c-17.2,5.1-21.2,7.7-845.5,556.9l-6.5,4.3
						c-824.9,548.3-828.9,550.9-840.2,564.8c-13.6,16.7-21.6,37.5-22.2,57.2c-0.2,22,4.1,35.7,17,55.6c9.4,14.7,14,19.2,25.5,26.5
						c19.5,12.1,73,16.8,89.9,27.4c24.2,15,49,39.3,39.3,74.7c-12.2,44.4-61.6,49.7-91.1,63.8c-42.8,20.5-32.7,96.6-16.6,129
						c4,7.5,81,123.7,171.3,257.9l53.1,79.7c89,135.2,166.4,251.1,171.8,257.7c23.6,27.4,90,66.1,125.4,34.5
						c24.3-21.7,48.3-65.3,94-59.4c36.4,4.7,49.3,36.9,53.8,65.1c3.3,19.7-13.1,70.9-9.5,93.5c2.3,13.4,4.7,19.4,14.5,33.8
						c13.4,19.6,24.3,28.9,44.7,37.2c18.4,7.1,40.7,7.8,61.4,1.7c17.2-5.1,21.2-7.7,845.5-556.9l6.5-4.3
						c824.9-548.3,828.9-550.9,840.2-564.8c13.6-16.7,21.6-37.5,22.2-57.2c0.2-22-4.1-35.7-17-55.6c-9.4-14.7-14-19.2-25.5-26.5
						c-19.5-12.1-73-16.8-89.9-27.4c-24.2-15-49-39.3-39.3-74.7c12.2-44.4,61.6-49.7,91.1-63.8c42.8-20.5,32.7-96.6,16.6-129
						c-4-7.5-81-123.7-171.3-257.9L1619.3,434.3z"/>
					<path class="st13" d="M1702.1,382.4c-94.8-146-177.3-271.3-183-278.4c-25.2-29.6-96.3-71.8-134.7-38
						c-26.3,23.2-52.4,69.9-101.5,63.2c-39.2-5.3-52.8-40.1-57.4-70.4c-3.4-21.2,14.6-76.1,10.8-100.5c-2.3-14.4-4.9-20.9-15.4-36.4
						c-14.3-21.2-25.9-31.2-47.8-40.3c-19.7-7.8-43.7-8.7-66-2.2c-18.6,5.4-22.8,8.2-913.5,593.1l-7,4.6
						c-891.3,584-895.6,586.8-907.9,601.7c-14.8,17.8-23.5,40.2-24.2,61.4c-0.4,23.7,4.1,38.4,17.9,59.9c10,15.8,15,20.8,27.3,28.6
						c20.9,13.2,78.4,18.5,96.5,30.1c26,16.3,52.4,42.6,41.7,80.7c-13.5,47.7-66.7,53-98.4,68c-46.2,21.7-35.9,103.7-18.8,138.7
						c4.3,8.1,86.3,133.6,182.5,278.7l56.5,86.2c94.8,146,177.3,271.3,183,278.4c25.2,29.6,96.3,71.8,134.7,38
						c26.3-23.2,52.4-69.9,101.5-63.2c39.2,5.3,52.8,40.1,57.4,70.4c3.4,21.2-14.6,76.1-10.8,100.5c2.3,14.4,4.9,20.9,15.4,36.4
						c14.3,21.2,25.9,31.2,47.8,40.3c19.7,7.8,43.7,8.7,66,2.2c18.6-5.4,22.8-8.2,913.5-593.1l7-4.6
						c891.3-584,895.6-586.8,907.9-601.7c14.8-17.8,23.5-40.2,24.2-61.4c0.4-23.7-4.1-38.4-17.9-59.9c-10-15.8-15-20.8-27.3-28.6
						c-20.9-13.2-78.4-18.5-96.5-30.1c-26-16.3-52.4-42.6-41.7-80.7c13.5-47.7,66.7-53,98.4-68c46.2-21.7,35.9-103.7,18.8-138.7
						c-4.3-8.1-86.3-133.6-182.5-278.7L1702.1,382.4z"/>
					<path class="st14" d="M1784.9,330.6c-100.6-156.9-188.1-291.5-194.2-299.2c-26.8-31.9-102.7-77.4-143.9-41.5
						c-28.3,24.6-56.5,74.5-109.1,67c-41.9-5.9-56.3-43.2-61-75.7c-3.5-22.7,16.1-81.4,12.2-107.5c-2.4-15.5-5.1-22.4-16.3-39.1
						c-15.1-22.8-27.6-33.6-51-43.4c-21.1-8.5-46.8-9.6-70.6-2.8c-19.9,5.6-24.5,8.6-981.6,629.3l-7.6,4.9
						c-957.8,619.7-962.4,622.7-975.6,638.5c-15.9,19-25.4,42.9-26.3,65.6c-0.6,25.4,4.2,41.1,18.8,64.3c10.7,17,15.9,22.3,29,30.8
						c22.2,14.2,83.8,20.3,103.1,32.8c27.7,17.6,55.9,45.9,44.1,86.6c-14.7,51-71.7,56.4-105.8,72.1c-49.6,23-39.1,110.8-20.9,148.3
						c4.5,8.7,91.5,143.6,193.6,299.5l60,92.6c100.6,156.9,188.1,291.5,194.2,299.2c26.8,31.9,102.7,77.4,143.9,41.5
						c28.3-24.6,56.5-74.5,109.1-67c41.9,5.9,56.3,43.2,61,75.7c3.5,22.7-16.1,81.4-12.2,107.5c2.4,15.5,5.1,22.4,16.3,39.1
						c15.1,22.8,27.6,33.6,51,43.4c21.1,8.5,46.8,9.6,70.6,2.8c19.9-5.6,24.5-8.6,981.6-629.3l7.6-4.9
						c957.8-619.7,962.4-622.7,975.6-638.5c15.9-19,25.4-42.9,26.3-65.6c0.6-25.4-4.2-41.1-18.8-64.3c-10.7-17-15.9-22.3-29-30.8
						c-22.2-14.2-83.8-20.3-103.1-32.8c-27.7-17.6-55.9-45.9-44.1-86.6c14.7-51,71.7-56.4,105.8-72.1c49.6-23,39.1-110.8,20.9-148.3
						c-4.5-8.7-91.5-143.6-193.6-299.5L1784.9,330.6z"/>
				</g>
				<path id="a6573c01-bcc5-457b-aac4-1879d3d65cce" class="st15" d="M469.4,1057.8c-190,189.8-190.9,190.7-193.2,195
					c-2.7,5-3.7,10.8-2.8,16.4c1.1,5.9,3,9.3,7.5,13.9c3.3,3.4,4.8,4.4,8.2,5.7c5.8,2.2,20.3,0.6,25.4,2.5
					c7.2,2.7,15.1,7.8,14.4,17.8c-0.9,12.5-13.7,16.5-20.8,21.8c-10.3,7.7-3.5,27.4,2.5,35.2c1.5,1.8,28.1,28.6,59.3,59.4l2.2,2.2
					c30.9,31.2,57.7,57.9,59.4,59.3c7.7,6,27.5,12.8,35.2,2.5c5.3-7.1,9.4-19.9,21.8-20.8c9.9-0.7,15.1,7.2,17.8,14.4
					c1.9,5.1,0.3,19.5,2.5,25.4c1.3,3.4,2.3,4.9,5.7,8.2c4.6,4.5,8,6.4,13.9,7.5c5.6,0.9,11.4-0.1,16.4-2.8
					c4.3-2.3,5.2-3.2,195-193.2l1.5-1.5c190-189.8,190.9-190.7,193.2-195c2.7-5,3.7-10.8,2.8-16.4c-1.1-5.9-3-9.3-7.5-13.9
					c-3.3-3.4-4.8-4.4-8.2-5.7c-5.8-2.2-20.3-0.6-25.4-2.5c-7.2-2.7-15.1-7.8-14.4-17.8c0.9-12.5,13.7-16.5,20.8-21.8
					c10.3-7.7,3.5-27.4-2.5-35.2c-1.5-1.8-28.1-28.6-59.3-59.4l-2.2-2.2c-30.9-31.2-57.7-57.9-59.4-59.3c-7.7-6-27.5-12.8-35.2-2.5
					c-5.3,7.1-9.4,19.9-21.8,20.8c-9.9,0.7-15.1-7.2-17.8-14.4c-1.9-5.1-0.3-19.5-2.5-25.4c-1.3-3.4-2.3-4.9-5.7-8.2
					c-4.6-4.5-8-6.4-13.9-7.5c-5.6-0.9-11.4,0.1-16.4,2.8 M612.2,1165.8H658l22.9,22.8l-22.9,23l-45.6,0l22.7,22.7l-26.3,26.3
					l-22.8-22.8l0,0l-25.7,25.7l-3.3,47.7l0,1.4l-0.1,0l0,0.1l-0.1-0.1l-26.1,0.1l-0.1,26.3h0l0,0l-49.2,3.4l-26.3-26.3l-22.9-22.9
					l26.3-26.3l45.9,45.9l0.1-26.3l26.1-0.1l-45.8-45.8l26.3-26.3l22.9,22.9l25.7-25.7l0,0l-22.9-22.9l26.3-26.3l22.9-22.9l45.7,0.1
					l0,0l25.6-25.6l0,0l3.4-49.2l45.7-45.7l26.3,26.3l-45.7,45.7l19.4,19.4l17.7-17.7l0-28h28l26.3,26.3l-45.7,45.7l-49.2,3.4l0,0
					l-25.6,25.6l-22.9-22.9l0,0L612.2,1165.8L612.2,1165.8l-22.8,22.8l22.8,22.8L612.2,1165.8L612.2,1165.8z"/>
			</g>
		</g>
		<path id="b09cde77-22ff-4972-8a2f-ee936c834879" d="M3270.1,1084.4l255.9,254.7l0.3,255l-256.3,0.9l-254.9-254.9l0,253.8l-293.8,0
			l0-254.9l-0.1,0l-287.3,0l-285.2,248.2l-7.8,7.8l-0.5-0.5l-0.6,0.5v-1.1l-146.5-145.2L1845.8,1595l-0.1-0.1v0.1l-294.1-256
			l0-293.7l0-256l294.1,0l0,513.2l147.6-146.4l146.5,145.3l0-512l294.1,0l0,256l287.4,0l0.1,0l0-256l293.8,0l255.9,0l254.9,256
			l0.2,0l286.3,0v0l293.7-255.4l510.9,0l0,293.7l-510.9,0v217.1l197.9,0l156.5-156.5l156.5,156.5v293.7l-510.9,0l-293.7-255.4v0
			l-286.4,0l0.1-256l-0.3,0l-510.6,0l0,254.9l254.6-253.7L3270.1,1084.4z"/>
	</g>
</g>
</svg>
