<svg xmlns="http://www.w3.org/2000/svg" viewBox="0 0 210.37 187.88"><g id="a7ecbbc8-769f-43d8-869c-86139073c020" data-name="Warstwa 2"><g id="eb51efb7-30dc-4252-88e6-9bc99409f5ed" data-name="Warstwa 1"><polygon points="60.19 172.69 87.75 180 87.75 170.44 90 168.19 105.75 168.19 105.75 179.44 105.75 187.31 88.88 187.31 68.06 178.31 60.19 172.69" style="fill:#cdbdb2;fill-rule:evenodd"/><polygon points="150.19 172.69 123.19 180 123.19 170.44 120.94 168.19 105.19 168.19 105.19 179.44 105.19 187.31 122.06 187.31 142.87 178.31 150.19 172.69" style="fill:#cdbdb2;fill-rule:evenodd"/><polygon points="90 151.88 87.75 170.44 90.56 168.19 119.81 168.19 123.19 170.44 120.94 151.88 116.44 149.06 93.94 149.63 90 151.88" style="fill:#393939;fill-rule:evenodd"/><polygon points="74.81 26.44 88.31 57.94 94.5 149.63 116.44 149.63 123.19 57.94 135.56 26.44 74.81 26.44" style="fill:#f89c35;fill-rule:evenodd"/><polygon points="15.75 95.63 0 141.19 39.38 138.94 64.69 138.94 64.69 119.25 63.56 78.75 57.94 83.25 15.75 95.63" style="fill:#f89d35;fill-rule:evenodd"/><polygon points="45.56 100.69 91.69 101.81 86.63 125.44 64.69 119.81 45.56 100.69" style="fill:#d87c30;fill-rule:evenodd"/><polygon points="45.56 101.25 64.69 119.25 64.69 137.25 45.56 101.25" style="fill:#ea8d3a;fill-rule:evenodd"/><polygon points="64.69 119.81 87.19 125.44 94.5 149.63 89.44 152.44 64.69 137.81 64.69 119.81" style="fill:#f89d35;fill-rule:evenodd"/><polygon points="64.69 137.81 60.19 172.69 90 151.88 64.69 137.81" style="fill:#eb8f35;fill-rule:evenodd"/><polygon points="91.69 101.81 94.5 149.63 86.06 125.16 91.69 101.81" style="fill:#ea8e3a;fill-rule:evenodd"/><polygon points="38.81 138.38 64.69 137.81 60.19 172.69 38.81 138.38" style="fill:#d87c30;fill-rule:evenodd"/><polygon points="12.38 187.88 60.19 172.69 38.81 138.38 0 141.19 12.38 187.88" style="fill:#eb8f35;fill-rule:evenodd"/><polygon points="88.31 57.94 64.13 78.19 45.56 100.69 91.69 102.38 88.31 57.94" style="fill:#e8821e;fill-rule:evenodd"/><polygon points="60.19 172.69 90 151.88 87.75 169.88 87.75 180 67.5 176.06 60.19 172.69" style="fill:#dfcec3;fill-rule:evenodd"/><polygon points="150.19 172.69 120.94 151.88 123.19 169.88 123.19 180 143.44 176.06 150.19 172.69" style="fill:#dfcec3;fill-rule:evenodd"/><polygon points="79.31 111.94 85.5 124.88 63.56 119.25 79.31 111.94" style="fill:#393939;fill-rule:evenodd"/><polygon points="11.81 0 88.31 57.94 75.38 26.44 11.81 0" style="fill:#e88f35;fill-rule:evenodd"/><path d="M11.81,0,1.69,30.94,7.31,64.69,3.37,66.94,9,72,4.5,75.94l6.19,5.62L6.75,84.94l9,11.25L57.94,83.25Q88.87,58.5,88.31,57.94T11.81,0Z" style="fill:#8e5a30;fill-rule:evenodd"/><polygon points="194.62 95.63 210.37 141.19 171 138.94 145.69 138.94 145.69 119.25 146.81 78.75 152.44 83.25 194.62 95.63" style="fill:#f89d35;fill-rule:evenodd"/><polygon points="164.81 100.69 118.69 101.81 123.75 125.44 145.69 119.81 164.81 100.69" style="fill:#d87c30;fill-rule:evenodd"/><polygon points="164.81 101.25 145.69 119.25 145.69 137.25 164.81 101.25" style="fill:#ea8d3a;fill-rule:evenodd"/><polygon points="145.69 119.81 123.19 125.44 115.87 149.63 120.94 152.44 145.69 137.81 145.69 119.81" style="fill:#f89d35;fill-rule:evenodd"/><polygon points="145.69 137.81 150.19 172.69 120.94 152.44 145.69 137.81" style="fill:#eb8f35;fill-rule:evenodd"/><polygon points="118.69 101.81 115.87 149.63 124.31 125.16 118.69 101.81" style="fill:#ea8e3a;fill-rule:evenodd"/><polygon points="171.56 138.38 145.69 137.81 150.19 172.69 171.56 138.38" style="fill:#d87c30;fill-rule:evenodd"/><polygon points="198 187.88 150.19 172.69 171.56 138.38 210.37 141.19 198 187.88" style="fill:#eb8f35;fill-rule:evenodd"/><polygon points="122.06 57.94 146.25 78.19 164.81 100.69 118.69 102.38 122.06 57.94" style="fill:#e8821e;fill-rule:evenodd"/><polygon points="131.06 111.94 124.87 124.88 146.81 119.25 131.06 111.94" style="fill:#393939;fill-rule:evenodd"/><polygon points="198.56 0 122.06 57.94 135 26.44 198.56 0" style="fill:#e88f35;fill-rule:evenodd"/><path d="M198.56,0l10.13,30.94-5.63,33.75L207,66.94,201.37,72l4.5,3.94-6.18,5.62,3.93,3.38-9,11.25L152.44,83.25Q121.5,58.5,122.06,57.94T198.56,0Z" style="fill:#8e5a30;fill-rule:evenodd"/></g></g></svg>