<svg xmlns="http://www.w3.org/2000/svg" viewBox="0 0 1024 1024"><g id="b1649502-9aff-4f04-9557-73d261c0fe12" data-name="Warstwa 2"><g id="e0c28d34-80f1-4a58-8b30-cee47f1d7a5f" data-name="Warstwa 1"><circle cx="512" cy="512" r="512" style="fill:#8247e5"/><path d="M681.47,402.46c-12.28-7.15-28.25-7.15-41.75,0l-95.79,54.77L478.84,493l-95.79,54.77c-12.28,7.14-28.24,7.14-41.75,0l-76.14-42.86c-12.28-7.15-20.87-20.25-20.87-34.53V385.79a38.41,38.41,0,0,1,20.87-34.53l74.91-41.68c12.28-7.14,28.25-7.14,41.76,0l74.91,41.68c12.28,7.14,20.87,20.24,20.87,34.53v54.77l65.09-36.91V348.87a38.44,38.44,0,0,0-20.88-34.53L383.05,235.76c-12.28-7.15-28.24-7.15-41.75,0L200.08,314.34a38.44,38.44,0,0,0-20.88,34.53V507.24a38.43,38.43,0,0,0,20.88,34.53L341.3,620.35c12.28,7.15,28.25,7.15,41.75,0l95.79-53.58,65.09-36.91,95.79-53.58c12.28-7.14,28.24-7.14,41.75,0L756.38,518c12.28,7.15,20.88,20.25,20.88,34.53V637a38.42,38.42,0,0,1-20.88,34.53l-74.91,42.87c-12.28,7.14-28.25,7.14-41.75,0L564.8,672.74c-12.27-7.14-20.87-20.24-20.87-34.53V583.44l-65.09,36.91v54.77a38.45,38.45,0,0,0,20.88,34.54l141.22,78.58c12.28,7.15,28.25,7.15,41.76,0l141.22-78.58c12.28-7.15,20.88-20.25,20.88-34.54V516.76a38.43,38.43,0,0,0-20.88-34.53Z" style="fill:#fff"/></g></g></svg>